<svg width="85" height="74" viewBox="0 0 85 74" fill="none" xmlns="http://www.w3.org/2000/svg">
<path d="M27.1832 59.5186C26.8433 59.5186 26.5034 59.3889 26.244 59.1296L16.1858 49.0714C15.9368 48.8223 15.7969 48.4846 15.7969 48.1323C15.7969 47.78 15.9368 47.4422 16.1858 47.1931L39.5193 23.8597C39.7684 23.6107 40.1062 23.4707 40.4585 23.4707C40.8108 23.4707 41.1486 23.6107 41.3976 23.8597L51.4558 33.9178C51.9744 34.4365 51.9744 35.2775 51.4558 35.7961L28.1223 59.1295C27.8629 59.389 27.5231 59.5186 27.1832 59.5186ZM19.0032 48.1323L27.1832 56.3122L48.6384 34.857L40.4585 26.6771L19.0032 48.1323Z" fill="#9C4FEB"/>
<path d="M50.5191 36.1853C50.1792 36.1853 49.8394 36.0556 49.58 35.7963C49.0614 35.2776 49.0614 34.4367 49.58 33.918L51.804 31.694C52.3778 31.1202 52.6938 30.3574 52.6938 29.546C52.6938 28.7345 52.3778 27.9717 51.804 27.3979L47.9202 23.5141C46.7359 22.3297 44.8087 22.3297 43.6241 23.5141L41.4001 25.7381C40.8814 26.2568 40.0405 26.2568 39.5218 25.7381C39.0031 25.2194 39.0031 24.3786 39.5218 23.8599L41.7459 21.6358C43.9661 19.4156 47.5783 19.4157 49.7985 21.6358L53.6823 25.5197C54.7579 26.5951 55.3501 28.025 55.3501 29.546C55.3501 31.0669 54.7579 32.4968 53.6823 33.5722L51.4583 35.7963C51.1989 36.0556 50.8591 36.1853 50.5191 36.1853Z" fill="#9C4FEB"/>
<path d="M12.0979 64.5464C11.7511 64.5464 11.4117 64.4105 11.1586 64.1573C10.8028 63.8016 10.6787 63.2754 10.8377 62.7982L15.8668 47.7109C16.0123 47.2742 16.3736 46.9441 16.8216 46.8383C17.2696 46.7326 17.7404 46.8663 18.0659 47.1918L28.124 57.2499C28.4495 57.5754 28.5832 58.0462 28.4775 58.4942C28.3717 58.9422 28.0416 59.3034 27.6048 59.449L12.5176 64.4781C12.3802 64.5241 12.2384 64.5464 12.0979 64.5464ZM17.7072 50.5896L14.1977 61.1183L24.7263 57.6087L17.7072 50.5896Z" fill="#9C4FEB"/>
<path d="M20.5664 52.8992C20.2266 52.8992 19.8867 52.7695 19.6273 52.5102C19.1086 51.9915 19.1086 51.1507 19.6273 50.632L38.9133 31.346C39.432 30.8274 40.2728 30.8274 40.7915 31.346C41.3102 31.8647 41.3102 32.7056 40.7915 33.2243L21.5055 52.5102C21.2463 52.7696 20.9064 52.8992 20.5664 52.8992Z" fill="#9C4FEB"/>
<path d="M27.8008 52.0398C27.4609 52.0398 27.121 51.9102 26.8617 51.6509C26.343 51.1322 26.343 50.2913 26.8617 49.7726L46.1476 30.4866C46.6663 29.968 47.5072 29.968 48.0258 30.4866C48.5445 31.0053 48.5445 31.8462 48.0258 32.3649L28.7399 51.6509C28.4806 51.9102 28.1407 52.0398 27.8008 52.0398Z" fill="#9C4FEB"/>
<path d="M18.6942 62.3457C18.5058 62.3457 18.3146 62.3054 18.1327 62.2204C17.0328 61.7064 16.036 61.0066 15.1699 60.1406C14.3038 59.2745 13.6041 58.2777 13.0901 57.1778C12.7795 56.5133 13.0664 55.7229 13.731 55.4123C14.3955 55.1018 15.186 55.3887 15.4965 56.0532C15.8793 56.8722 16.4014 57.6155 17.0482 58.2623C17.6951 58.9092 18.4383 59.4313 19.2573 59.814C19.9218 60.1245 20.2088 60.915 19.8983 61.5795C19.6727 62.0622 19.1939 62.3457 18.6942 62.3457Z" fill="#9C4FEB"/>
<path d="M72.9049 64.5469H63.0859C62.3524 64.5469 61.7578 63.9523 61.7578 63.2188C61.7578 62.4852 62.3524 61.8906 63.0859 61.8906H72.9049C73.6384 61.8906 74.2331 62.4852 74.2331 63.2188C74.2331 63.9523 73.6384 64.5469 72.9049 64.5469Z" fill="#9C4FEB"/>
<path d="M57.7027 64.5469H12.0977C11.3641 64.5469 10.7695 63.9523 10.7695 63.2188C10.7695 62.4852 11.3641 61.8906 12.0977 61.8906H57.7027C58.4362 61.8906 59.0308 62.4852 59.0308 63.2188C59.0308 63.9523 58.4362 64.5469 57.7027 64.5469Z" fill="#9C4FEB"/>
<path d="M80.1609 73.4805H4.83886C2.17071 73.4805 0 71.3098 0 68.6417V4.8388C0 2.17065 2.17071 0 4.83886 0H80.1609C82.8291 0 84.9997 2.17071 84.9997 4.8388V68.6416C84.9997 71.3098 82.829 73.4805 80.1609 73.4805ZM4.83886 2.65625C3.63536 2.65625 2.65625 3.63535 2.65625 4.8388V68.6416C2.65625 69.8451 3.63536 70.8242 4.83886 70.8242H80.1609C81.3644 70.8242 82.3435 69.8451 82.3435 68.6416V4.8388C82.3435 3.6353 81.3644 2.65625 80.1609 2.65625H4.83886Z" fill="#5C308C"/>
<path d="M83.6719 13.6953H1.32812C0.594613 13.6953 0 13.1007 0 12.3672C0 11.6337 0.594613 11.0391 1.32812 11.0391H83.6719C84.4054 11.0391 85 11.6337 85 12.3672C85 13.1007 84.4054 13.6953 83.6719 13.6953Z" fill="#5C308C"/>
<path d="M10.5034 8.18555H6.70703C5.97352 8.18555 5.37891 7.59093 5.37891 6.85742C5.37891 6.12391 5.97352 5.5293 6.70703 5.5293H10.5034C11.2369 5.5293 11.8315 6.12391 11.8315 6.85742C11.8315 7.59093 11.2369 8.18555 10.5034 8.18555Z" fill="#5C308C"/>
<path d="M19.6166 8.18555H15.8203C15.0868 8.18555 14.4922 7.59093 14.4922 6.85742C14.4922 6.12391 15.0868 5.5293 15.8203 5.5293H19.6166C20.3502 5.5293 20.9448 6.12391 20.9448 6.85742C20.9448 7.59093 20.3502 8.18555 19.6166 8.18555Z" fill="#5C308C"/>
<path d="M28.7416 8.18555H24.9453C24.2118 8.18555 23.6172 7.59093 23.6172 6.85742C23.6172 6.12391 24.2118 5.5293 24.9453 5.5293H28.7416C29.4752 5.5293 30.0698 6.12391 30.0698 6.85742C30.0698 7.59093 29.4751 8.18555 28.7416 8.18555Z" fill="#5C308C"/>
</svg>
