<svg width="245" height="72" viewBox="0 0 245 72" fill="none" xmlns="http://www.w3.org/2000/svg">
<g clip-path="url(#clip0_1692_8369)">
<path d="M176.213 13.3621V5.895H146.969V45.668H154.906V29.5897H172.415L167.605 22.4217H154.906V13.3621H176.213Z" fill="#1EC85A"/>
<path d="M217.887 22.4216H203.805L197.114 29.5896H209.931C208.859 35.3594 204.883 39.1929 198.395 39.1929C191.509 39.1929 185.963 34.1005 185.963 25.9658C185.963 17.8314 191.252 12.8502 198.535 12.8502C202.603 12.8502 205.903 14.4428 208.151 17.0301L213.869 11.4263C210.341 7.58624 205.08 5.31364 198.764 5.31364C186.531 5.31364 177.742 13.9314 177.742 25.9658C177.742 38.8208 187.53 46.5898 198.566 46.5898C210.28 46.5898 218.024 39.6632 218.024 25.5431C218.024 24.8057 217.989 23.264 217.884 22.4216H217.887Z" fill="#1EC85A"/>
<path d="M100.512 55.9075C101.882 55.9075 102.993 56.3844 103.844 57.3384C104.703 58.2856 105.136 59.5224 105.143 61.0488C105.143 61.2532 105.129 61.5189 105.102 61.846H97.865C98.0012 62.6842 98.3351 63.3111 98.8666 63.7267C99.3981 64.1356 100.035 64.34 100.778 64.34C101.8 64.34 102.744 63.9959 103.609 63.3077L104.672 64.8306C103.596 65.7506 102.253 66.2105 100.645 66.2105C99.1665 66.2105 97.9604 65.7369 97.0268 64.7898C96.1001 63.8426 95.6367 62.599 95.6367 61.059C95.6367 59.5258 96.0865 58.2856 96.9859 57.3384C97.8922 56.3844 99.0677 55.9075 100.512 55.9075ZM100.471 57.8086C99.7355 57.8086 99.146 58.0267 98.7031 58.4628C98.267 58.8921 97.991 59.4781 97.8752 60.2208H102.955C102.839 59.4576 102.563 58.8648 102.127 58.4423C101.698 58.0199 101.146 57.8086 100.471 57.8086Z" fill="#1EC85A"/>
<path d="M113.393 59.536V61.4781H107.464V59.536H113.393Z" fill="#1EC85A"/>
<path d="M116.691 51.6452H122.241C123.032 51.6452 123.74 51.7167 124.367 51.8598C125.001 52.0029 125.563 52.2244 126.054 52.5242C126.551 52.824 126.933 53.2295 127.198 53.7405C127.464 54.2516 127.597 54.8513 127.597 55.5395C127.597 56.2686 127.389 56.916 126.974 57.4815C126.558 58.0403 126.03 58.4083 125.389 58.5854C126.105 58.7967 126.704 59.1987 127.188 59.7915C127.679 60.3844 127.924 61.076 127.924 61.8665C127.924 63.2497 127.454 64.2787 126.514 64.9533C125.573 65.6211 124.258 65.955 122.568 65.955H116.691V51.6452ZM122.466 59.8222H119.001V63.7881H122.466C122.957 63.7881 123.372 63.7608 123.713 63.7063C124.061 63.6518 124.374 63.553 124.653 63.4099C124.94 63.2668 125.151 63.0624 125.287 62.7966C125.43 62.524 125.502 62.1867 125.502 61.7847C125.502 61.3895 125.43 61.0624 125.287 60.8035C125.151 60.5377 124.94 60.3367 124.653 60.2004C124.374 60.0573 124.061 59.9585 123.713 59.904C123.372 59.8495 122.957 59.8222 122.466 59.8222ZM122.149 53.8121H119.001V57.6655H122.17C122.524 57.6655 122.834 57.6553 123.1 57.6349C123.372 57.6076 123.645 57.5531 123.917 57.4713C124.19 57.3895 124.411 57.2805 124.582 57.1442C124.759 57.0011 124.902 56.8103 125.011 56.5718C125.12 56.3333 125.175 56.0471 125.175 55.7132C125.175 55.318 125.096 54.9909 124.94 54.732C124.783 54.4663 124.551 54.272 124.244 54.1494C123.945 54.0199 123.631 53.9313 123.304 53.8836C122.984 53.8359 122.599 53.8121 122.149 53.8121Z" fill="#1EC85A"/>
<path d="M140.163 56.163V65.955H138.026V64.7795C137.284 65.7335 136.258 66.2105 134.95 66.2105C133.566 66.2105 132.405 65.7233 131.464 64.7489C130.524 63.7744 130.054 62.5445 130.054 61.059C130.054 59.5735 130.524 58.3435 131.464 57.3691C132.405 56.3947 133.566 55.9075 134.95 55.9075C136.258 55.9075 137.284 56.3879 138.026 57.3487V56.163H140.163ZM135.205 57.921C134.313 57.921 133.597 58.2243 133.059 58.8307C132.52 59.4304 132.251 60.1731 132.251 61.059C132.251 61.9448 132.52 62.691 133.059 63.2974C133.597 63.8971 134.313 64.1969 135.205 64.1969C136.077 64.1969 136.786 63.9005 137.331 63.3077C137.883 62.7148 138.159 61.9653 138.159 61.059C138.159 60.1527 137.883 59.4031 137.331 58.8103C136.786 58.2175 136.077 57.921 135.205 57.921Z" fill="#1EC85A"/>
<path d="M148.647 55.9075C149.812 55.9075 150.766 56.272 151.509 57.0011C152.251 57.7234 152.623 58.657 152.623 59.8018V65.955H150.476V60.507C150.476 59.6893 150.275 59.059 149.873 58.6161C149.478 58.1664 148.919 57.9415 148.197 57.9415C147.475 57.9415 146.872 58.1732 146.388 58.6365C145.904 59.0931 145.662 59.7234 145.662 60.5275V65.955H143.516V56.163H145.642V57.3589C146.303 56.3913 147.304 55.9075 148.647 55.9075Z" fill="#1EC85A"/>
<path d="M158.019 51.2363V59.8835H159.093L162.323 56.163H165.011L160.912 60.7728L165.052 65.955H162.343L159.082 61.8256H158.019V65.955H155.873V51.2363H158.019Z" fill="#1EC85A"/>
<path d="M124.964 5.895H115.749L95.6367 45.668H104.417L108.924 36.7577H129.163L125.539 29.5897H112.548L120.358 14.1246L136.297 45.668H145.076L124.964 5.895Z" fill="#1EC85A"/>
<path fill-rule="evenodd" clip-rule="evenodd" d="M62.7947 37.0895C62.491 46.0283 59.7597 51.7256 56.0916 55.3225C47.5683 63.6777 33.9814 60.7097 33.9814 60.7097C33.9814 60.7097 39.6033 66.0837 49.2744 66.1009C63.6022 66.1268 74.2621 56.8885 74.5616 37.2143C74.61 35.9039 74.6234 34.6439 74.604 33.4328C71.0358 33.6333 67.1204 34.0131 62.91 34.6907C62.8876 35.461 62.8493 36.261 62.7947 37.0917V37.0895ZM27.3579 44.9711C27.3579 44.9711 27.4323 44.3533 27.5061 43.9597C27.4423 44.2984 27.3927 44.6359 27.3579 44.9711ZM62.9334 33.3169C67.1211 32.6523 71.0169 32.2782 74.568 32.0798C74.4271 28.3137 73.9563 25.0426 73.2236 22.2095C72.916 22.2171 72.6107 22.2257 72.3078 22.2351C68.2782 22.361 64.6671 22.6469 61.4224 23.0525C62.4163 25.5795 62.953 28.9293 62.9334 33.3169ZM59.7575 6.39158C65.197 8.13974 70.2719 12.3674 72.8469 20.866C68.3698 20.9876 64.3898 21.3037 60.8399 21.7628C59.3425 18.8647 57.1078 17.2822 54.3513 16.5473C47.6283 14.753 40.8611 17.962 37.7428 19.4406L37.7416 19.4412C37.5664 19.5242 37.4028 19.6018 37.2513 19.6728L30.1323 10.7812C35.9932 7.70762 47.9583 2.59843 59.7575 6.39158ZM27.5102 43.9383C27.5855 43.5445 27.7359 42.9557 27.7359 42.9557C27.6477 43.2841 27.5723 43.6119 27.5102 43.9383Z" fill="#E20000"/>
<path d="M88.3411 31.9941C81.3579 31.7872 70.6615 31.5675 57.6066 34.2966C43.2268 37.3013 39.4338 43.5714 38.665 46.6107C37.7083 50.3887 38.9771 55.375 45.3291 57.2813C42.0809 58.0393 37.4329 58.3584 33.8592 56.9323C28.4446 54.7719 27.0099 49.6627 27.3266 45.3334C27.7465 39.5545 32.6102 33.099 39.8517 29.2822C46.7594 25.64 58.2722 21.7865 80.1733 22.1938L88.3433 31.9941H88.3411Z" fill="#1EC85A"/>
</g>
<defs>
<clipPath id="clip0_1692_8369">
<rect width="244.242" height="71.8939" fill="white"/>
</clipPath>
</defs>
</svg>
